<svg xmlns="http://www.w3.org/2000/svg" width="61.457" height="60" viewBox="0 0 61.457 60">
  <g id="logo-white" transform="translate(-198 -42.299)">
    <path id="Subtraction_3" data-name="Subtraction 3" d="M21.285,59.922h0a35.154,35.154,0,0,1-8.6-4.852,33.511,33.511,0,0,1-6.731-6.908,30.793,30.793,0,0,1,0-36.4,33.512,33.512,0,0,1,6.731-6.908A35.159,35.159,0,0,1,21.285,0Z" transform="translate(198 42.299)" fill="#dcd7d7"/>
    <path id="Path_2" data-name="Path 2" d="M93.972,0c26.667,1.314,36.081,17.87,36.8,45.465-5.95,0-11.546.025-16.56.053-12.042.068-20.256.156-20.243-.053.019-.294-.447.292,0,0S93.972,28.75,93.972,0Z" transform="translate(128.681 56.704)" fill="#dcd7d7"/>
  </g>
</svg>
