<svg xmlns="http://www.w3.org/2000/svg" width="182.502" height="41.014" viewBox="0 0 182.502 41.014">
  <g id="JAVASCRIPT" transform="translate(0 -0.819)">
    <text id="JAVASCRIPT-2" data-name="JAVASCRIPT" transform="translate(56.502 36.833)" fill="rgba(255,255,255,0.4)" font-size="20" font-family="Montserrat-Regular, Montserrat" letter-spacing="0.01em"><tspan x="0" y="0">JAVASCRIPT</tspan></text>
    <path id="Icon_awesome-js" data-name="Icon awesome-js" d="M0,2.25V40.88H38.63V2.25ZM21.022,32.378c0,3.76-2.207,5.475-5.424,5.475a5.639,5.639,0,0,1-5.45-3.32l2.958-1.785c.569,1.009,1.086,1.863,2.337,1.863,1.19,0,1.949-.466,1.949-2.285V19.987h3.63Zm8.588,5.475A6.967,6.967,0,0,1,23,34.146l2.958-1.707a3.961,3.961,0,0,0,3.578,2.207c1.5,0,2.466-.75,2.466-1.794,0-1.242-.983-1.681-2.647-2.414l-.905-.388c-2.621-1.112-4.355-2.518-4.355-5.475,0-2.725,2.078-4.794,5.312-4.794a5.346,5.346,0,0,1,5.156,2.906L31.732,24.5A2.469,2.469,0,0,0,29.4,22.945,1.576,1.576,0,0,0,27.662,24.5c0,1.086.673,1.526,2.233,2.207l.905.388c3.087,1.319,4.82,2.673,4.82,5.708,0,3.259-2.57,5.053-6.01,5.053Z" transform="translate(0 -1.431)" fill="rgba(255,255,255,0.4)"/>
  </g>
</svg>
