<svg xmlns="http://www.w3.org/2000/svg" width="118.224" height="37.095" viewBox="0 0 118.224 37.095">
  <g id="MYSQL" transform="translate(0 -4.905)">
    <text id="MYSQL-2" data-name="MYSQL" transform="translate(53.224 37)" fill="rgba(255,255,255,0.4)" font-size="20" font-family="SegoeUI, Segoe UI" letter-spacing="0.01em"><tspan x="0" y="0">MYSQL</tspan></text>
    <path id="Icon_simple-mysql" data-name="Icon simple-mysql" d="M30.178,9.074a2.03,2.03,0,0,0-.5.061v.024H29.7a4.15,4.15,0,0,0,.394.5c.1.2.184.394.283.589l.026-.028a.684.684,0,0,0,.258-.613c-.074-.086-.085-.173-.147-.258-.074-.123-.232-.184-.331-.281ZM10.614,33.345H8.909c-.055-2.873-.226-5.574-.5-8.112H8.4L5.8,33.345h-1.3L1.932,25.233H1.913q-.284,3.651-.359,8.112H0Q.152,27.92.754,23.172H2.87l2.456,7.476H5.34l2.478-7.476H9.832q.668,5.56.787,10.173ZM18,25.84q-1.043,5.643-2.745,8.2a3.656,3.656,0,0,1-2.912,1.974,2.871,2.871,0,0,1-1.041-.254v-.909a4.721,4.721,0,0,0,.71.048,1.715,1.715,0,0,0,1.19-.408,1.482,1.482,0,0,0,.543-1.113,7.379,7.379,0,0,0-.423-1.737L11.46,25.84h1.674l1.337,4.341a5.829,5.829,0,0,1,.377,2.066,28.063,28.063,0,0,0,1.536-6.407H18Zm22.672,7.505H35.838V23.172h1.628v8.922h3.21Zm-6.107.248-1.869-.92a3.95,3.95,0,0,0,.469-.46,6.231,6.231,0,0,0,1.192-4.144q0-5.05-3.964-5.051A3.772,3.772,0,0,0,27.361,24.3a6.245,6.245,0,0,0-1.188,4.13,6.03,6.03,0,0,0,1.056,3.937A3.616,3.616,0,0,0,30.141,33.5a4.677,4.677,0,0,0,1.334-.18l2.437,1.42.662-1.144Zm-6.056-2.285a6.251,6.251,0,0,1-.62-3.193q0-3.844,2.336-3.845a1.965,1.965,0,0,1,1.8.92,6.222,6.222,0,0,1,.618,3.17q0,3.874-2.336,3.878a1.966,1.966,0,0,1-1.8-.92Zm-3.05-.782a2.7,2.7,0,0,1-.949,2.126,3.73,3.73,0,0,1-2.546.828,5.1,5.1,0,0,1-2.894-.947l.436-.876a4.936,4.936,0,0,0,2.189.6,2.3,2.3,0,0,0,1.44-.4,1.386,1.386,0,0,0,.552-1.131c0-.607-.423-1.122-1.192-1.554-.714-.392-2.139-1.209-2.139-1.209A2.435,2.435,0,0,1,19.2,25.8a2.525,2.525,0,0,1,.865-2,3.259,3.259,0,0,1,2.244-.763,4.618,4.618,0,0,1,2.575.754l-.392.876a5.015,5.015,0,0,0-1.957-.423,1.732,1.732,0,0,0-1.2.379,1.26,1.26,0,0,0-.456.964c0,.6.43,1.122,1.225,1.564.723.4,2.184,1.232,2.184,1.232a2.4,2.4,0,0,1,1.192,2.149ZM42.721,19.762a5.64,5.64,0,0,0-2.386.346c-.184.074-.478.074-.5.307.1.1.116.258.2.394a2.822,2.822,0,0,0,.636.749c.258.2.515.4.785.57.478.294,1.021.469,1.49.765.267.173.539.392.809.576.134.092.221.258.394.316v-.037c-.085-.11-.11-.27-.193-.394-.123-.123-.246-.234-.368-.355a5.929,5.929,0,0,0-1.278-1.242c-.394-.269-1.255-.644-1.416-1.095l-.024-.026a4.95,4.95,0,0,0,.846-.195c.418-.11.8-.086,1.232-.195.195-.05.392-.11.589-.173v-.11c-.221-.221-.386-.521-.614-.727a16.311,16.311,0,0,0-2.031-1.514c-.386-.246-.876-.4-1.282-.614-.147-.074-.394-.11-.478-.234a4.743,4.743,0,0,1-.506-.946c-.353-.677-.7-1.426-1.006-2.139a12.738,12.738,0,0,0-.625-1.4,12.394,12.394,0,0,0-4.757-4.6,5.991,5.991,0,0,0-1.575-.5c-.307-.015-.614-.037-.92-.05a4.463,4.463,0,0,1-.57-.432c-.7-.441-2.509-1.4-3.024-.132-.331.8.491,1.586.776,1.99a5.671,5.671,0,0,1,.625.92c.086.213.11.432.2.655a14.721,14.721,0,0,0,.638,1.65,5.641,5.641,0,0,0,.454.76c.1.134.269.2.307.418a3.581,3.581,0,0,0-.283.92,5.449,5.449,0,0,0,.357,4.139c.2.305.666.982,1.293.723.552-.221.43-.92.589-1.536.037-.147.013-.245.088-.344v.028c.173.346.346.675.5,1.021a6.922,6.922,0,0,0,1.595,1.646c.294.221.528.6.9.739v-.037h-.028a1.642,1.642,0,0,0-.283-.245,6.337,6.337,0,0,1-.644-.736,16.114,16.114,0,0,1-1.374-2.241c-.2-.386-.372-.8-.533-1.183-.074-.147-.074-.368-.2-.441a4.54,4.54,0,0,0-.589.833,7.028,7.028,0,0,0-.346,1.858c-.05.013-.026,0-.05.026-.394-.1-.528-.5-.675-.846a5.339,5.339,0,0,1-.11-3.284c.086-.258.454-1.071.307-1.317-.077-.234-.32-.368-.454-.557a4.558,4.558,0,0,1-.441-.785c-.294-.688-.441-1.45-.762-2.138a6.371,6.371,0,0,0-.614-.944,6.19,6.19,0,0,1-.677-.957c-.061-.134-.147-.357-.05-.5a.21.21,0,0,1,.173-.166c.162-.132.616.04.776.114a6.291,6.291,0,0,1,1.218.614c.173.121.359.355.579.416h.258c.394.086.837.026,1.2.134a7.871,7.871,0,0,1,1.77.846,10.951,10.951,0,0,1,3.835,4.205c.147.283.212.543.346.837.258.607.576,1.22.837,1.806a8.01,8.01,0,0,0,.876,1.65c.184.258.923.392,1.255.526a8.936,8.936,0,0,1,.846.346c.423.258.835.552,1.232.835.2.14.815.447.852.7Z" transform="translate(0 -1.134)" fill="rgba(255,255,255,0.4)"/>
  </g>
</svg>
