<svg id="NODE" xmlns="http://www.w3.org/2000/svg" width="149.412" height="44.492" viewBox="0 0 149.412 44.492">
  <text id="NODE.JS" transform="translate(56.412 39.492)" fill="rgba(255,255,255,0.4)" font-size="20" font-family="Montserrat-Regular, Montserrat" letter-spacing="0.01em"><tspan x="0" y="0">NODE.JS</tspan></text>
  <path id="Icon_awesome-node-js" data-name="Icon awesome-node-js" d="M19.3,43.739a3.378,3.378,0,0,1-1.673-.448l-5.32-3.147c-.793-.448-.405-.6-.147-.69a10.48,10.48,0,0,0,2.406-1.1.389.389,0,0,1,.4.034l4.087,2.423a.5.5,0,0,0,.491,0l15.926-9.192a.511.511,0,0,0,.241-.431V12.809a.514.514,0,0,0-.25-.44L19.545,3.186a.5.5,0,0,0-.492,0L3.145,12.378a.5.5,0,0,0-.25.44V31.193a.476.476,0,0,0,.25.423l4.363,2.518c2.371,1.181,3.82-.207,3.82-1.612V14.379a.456.456,0,0,1,.466-.457h2.018a.462.462,0,0,1,.466.457V32.53c0,3.156-1.725,4.967-4.717,4.967a6.772,6.772,0,0,1-3.665-1L1.722,34.091A3.353,3.353,0,0,1,.049,31.185V12.809A3.363,3.363,0,0,1,1.722,9.9L17.631.712a3.491,3.491,0,0,1,3.346,0L36.9,9.912a3.353,3.353,0,0,1,1.673,2.906V31.193A3.374,3.374,0,0,1,36.9,34.1L20.977,43.291a3.354,3.354,0,0,1-1.673.448ZM32.161,25.623c0-3.441-2.328-4.355-7.217-5-4.949-.655-5.45-.992-5.45-2.147,0-.957.423-2.233,4.087-2.233,3.268,0,4.475.707,4.975,2.915a.462.462,0,0,0,.448.362h2.069a.45.45,0,0,0,.336-.147.48.48,0,0,0,.121-.354c-.319-3.8-2.846-5.57-7.95-5.57-4.544,0-7.252,1.914-7.252,5.131,0,3.484,2.7,4.449,7.053,4.881C28.6,23.967,29,24.735,29,25.761c0,1.776-1.431,2.535-4.786,2.535-4.217,0-5.139-1.061-5.45-3.156a.456.456,0,0,0-.457-.388H16.251a.454.454,0,0,0-.457.457c0,2.682,1.457,5.881,8.433,5.881,5.036-.009,7.933-2,7.933-5.467Z" transform="translate(-0.049 -0.285)" fill="rgba(255,255,255,0.4)"/>
</svg>
