<svg xmlns="http://www.w3.org/2000/svg" width="136.523" height="39.855" viewBox="0 0 136.523 39.855">
  <g id="REACT" transform="translate(0 -2.145)">
    <text id="REACT.JS" transform="translate(55.523 37)" fill="rgba(255,255,255,0.4)" font-size="20" font-family="SegoeUI, Segoe UI" letter-spacing="0.01em"><tspan x="0" y="0">REACT.JS</tspan></text>
    <path id="Icon_awesome-react" data-name="Icon awesome-react" d="M36.061,14.77q-.7-.233-1.4-.44c.078-.319.147-.638.216-.957,1.061-5.139.362-9.27-1.992-10.632-2.268-1.3-5.967.052-9.709,3.311-.371.319-.733.655-1.078.992-.233-.224-.474-.448-.716-.664C17.461,2.9,13.529,1.431,11.175,2.8,8.916,4.112,8.243,8,9.192,12.864c.095.483.2.957.319,1.44-.552.155-1.1.328-1.6.509C3.3,16.408,0,18.926,0,21.53c0,2.69,3.518,5.389,8.3,7.028.388.129.776.259,1.173.371-.129.517-.241,1.026-.345,1.552-.905,4.786-.2,8.58,2.061,9.882,2.328,1.345,6.243-.034,10.054-3.372.3-.267.6-.543.905-.836.379.371.776.724,1.173,1.069,3.691,3.173,7.338,4.458,9.589,3.156,2.328-1.345,3.087-5.424,2.1-10.39q-.116-.569-.259-1.164c.276-.078.543-.164.811-.25,4.975-1.647,8.58-4.311,8.58-7.045,0-2.613-3.4-5.148-8.088-6.76ZM24.394,7.449c3.208-2.794,6.2-3.889,7.562-3.1,1.457.836,2.018,4.217,1.1,8.657-.06.293-.121.578-.2.862a44.142,44.142,0,0,0-5.8-.914,43.566,43.566,0,0,0-3.673-4.579c.336-.319.664-.621,1.009-.923ZM14.417,26.006c.44.75.888,1.5,1.362,2.233a39.046,39.046,0,0,1-4-.647,40.281,40.281,0,0,1,1.406-3.837c.4.759.8,1.509,1.233,2.251ZM11.8,15.632c1.242-.276,2.561-.5,3.932-.673-.457.716-.905,1.449-1.328,2.19s-.836,1.483-1.224,2.242c-.543-1.285-1-2.544-1.38-3.76Zm2.363,5.941c.569-1.19,1.19-2.354,1.845-3.5s1.362-2.259,2.1-3.354c1.293-.095,2.613-.147,3.958-.147s2.673.052,3.958.147q1.1,1.63,2.1,3.337T30,21.539q-.867,1.785-1.863,3.518c-.655,1.147-1.354,2.259-2.087,3.363-1.285.095-2.621.138-3.975.138s-2.664-.043-3.932-.121q-1.125-1.643-2.121-3.363c-.664-1.147-1.276-2.311-1.854-3.5ZM29.74,25.988c.44-.759.854-1.526,1.259-2.3a40.028,40.028,0,0,1,1.457,3.82,37.874,37.874,0,0,1-4.053.69C28.869,27.472,29.309,26.73,29.74,25.988Zm1.242-6.6c-.405-.759-.819-1.518-1.25-2.259s-.862-1.457-1.319-2.173a39.681,39.681,0,0,1,3.958.69,38.161,38.161,0,0,1-1.388,3.742Zm-8.89-9.7a37.865,37.865,0,0,1,2.552,3.087c-1.707-.078-3.423-.078-5.131,0C20.358,11.666,21.229,10.631,22.092,9.691Zm-10-5.286c1.449-.845,4.665.362,8.054,3.363.216.19.431.4.655.6a43.808,43.808,0,0,0-3.7,4.579,45.453,45.453,0,0,0-5.795.9c-.112-.44-.207-.888-.3-1.337-.811-4.173-.276-7.321,1.086-8.105ZM9.977,27.135c-.362-.1-.716-.216-1.069-.336a17.587,17.587,0,0,1-5.432-2.69A3.869,3.869,0,0,1,1.854,21.53c0-1.578,2.725-3.6,6.657-4.967C9,16.391,9.5,16.236,10,16.089a45.852,45.852,0,0,0,2.113,5.484,47.134,47.134,0,0,0-2.138,5.562Zm10.054,8.45a15.783,15.783,0,0,1-4.863,3.044,3.817,3.817,0,0,1-3.044.112c-1.371-.793-1.94-3.837-1.164-7.933.095-.483.2-.966.319-1.44a43.138,43.138,0,0,0,5.855.845,45.505,45.505,0,0,0,3.725,4.6C20.583,35.085,20.307,35.344,20.031,35.586Zm2.113-2.1c-.88-.949-1.759-2-2.613-3.13.828.034,1.681.052,2.544.052.888,0,1.759-.017,2.621-.06a37.185,37.185,0,0,1-2.552,3.139Zm11.27,2.587a3.832,3.832,0,0,1-1.423,2.7c-1.371.793-4.294-.241-7.45-2.949-.362-.31-.724-.647-1.1-.992a42.656,42.656,0,0,0,3.639-4.622,42.507,42.507,0,0,0,5.881-.905c.086.354.164.707.233,1.052a15.719,15.719,0,0,1,.216,5.717Zm1.569-9.27c-.241.078-.483.155-.733.224a43.8,43.8,0,0,0-2.2-5.5,43.586,43.586,0,0,0,2.113-5.424c.448.129.88.267,1.293.405,4.018,1.38,6.838,3.432,6.838,5,0,1.69-3.009,3.872-7.312,5.294ZM22.074,25.514a3.949,3.949,0,1,0-3.949-3.949A3.949,3.949,0,0,0,22.074,25.514Z" transform="translate(0 -0.106)" fill="rgba(255,255,255,0.4)"/>
  </g>
</svg>
